<svg width="189" height="33" viewBox="0 0 189 33" fill="none" xmlns="http://www.w3.org/2000/svg">
<path d="M12.7696 26.384C19.8096 26.384 25.0256 21.488 25.0256 14.8C25.0256 8.112 19.8096 3.216 12.7696 3.216C5.69763 3.216 0.513625 8.144 0.513625 14.8C0.513625 21.456 5.69763 26.384 12.7696 26.384ZM12.7696 21.968C8.76963 21.968 5.76163 19.056 5.76163 14.8C5.76163 10.544 8.76963 7.632 12.7696 7.632C16.7696 7.632 19.7776 10.544 19.7776 14.8C19.7776 19.056 16.7696 21.968 12.7696 21.968ZM40.9216 8.784V17.296C40.9216 20.464 39.2576 21.936 36.9536 21.936C34.7456 21.936 33.4656 20.656 33.4656 17.776V8.784H28.4736V18.512C28.4736 23.824 31.5136 26.256 35.8336 26.256C37.9456 26.256 39.8656 25.456 41.1776 23.952V26H45.9136V8.784H40.9216ZM55.3064 11.056V8.784H50.5384V26H55.5304V17.872C55.5304 14.576 57.3544 13.072 60.1064 13.072C60.4904 13.072 60.8104 13.104 61.2264 13.136V8.528C58.5704 8.528 56.5224 9.392 55.3064 11.056ZM83.4301 3.6H73.7341V26H78.9181V19.824H83.4301C89.4141 19.824 93.1581 16.72 93.1581 11.728C93.1581 6.704 89.4141 3.6 83.4301 3.6ZM83.1421 15.6H78.9181V7.824H83.1421C86.3101 7.824 87.9101 9.264 87.9101 11.728C87.9101 14.16 86.3101 15.6 83.1421 15.6ZM101.275 11.056V8.784H96.5071V26H101.499V17.872C101.499 14.576 103.323 13.072 106.075 13.072C106.459 13.072 106.779 13.104 107.195 13.136V8.528C104.539 8.528 102.491 9.392 101.275 11.056ZM112.659 6.384C114.515 6.384 115.763 5.168 115.763 3.504C115.763 1.968 114.515 0.815998 112.659 0.815998C110.803 0.815998 109.555 2.032 109.555 3.6C109.555 5.168 110.803 6.384 112.659 6.384ZM110.163 26H115.155V8.784H110.163V26ZM128.108 26.256C131.724 26.256 134.572 24.656 135.82 21.904L131.948 19.792C131.02 21.456 129.644 22.16 128.076 22.16C125.548 22.16 123.564 20.4 123.564 17.392C123.564 14.384 125.548 12.624 128.076 12.624C129.644 12.624 131.02 13.36 131.948 14.992L135.82 12.912C134.572 10.096 131.724 8.528 128.108 8.528C122.508 8.528 118.508 12.208 118.508 17.392C118.508 22.576 122.508 26.256 128.108 26.256ZM141.191 6.384C143.047 6.384 144.295 5.168 144.295 3.504C144.295 1.968 143.047 0.815998 141.191 0.815998C139.335 0.815998 138.087 2.032 138.087 3.6C138.087 5.168 139.335 6.384 141.191 6.384ZM138.695 26H143.687V8.784H138.695V26ZM158.784 8.528C156.448 8.528 154.432 9.328 153.088 10.8V8.784H148.32V26H153.312V17.488C153.312 14.32 155.04 12.848 157.44 12.848C159.648 12.848 160.928 14.128 160.928 16.912V26H165.92V16.144C165.92 10.896 162.848 8.528 158.784 8.528ZM183.656 8.784V10.992C182.344 9.328 180.36 8.528 177.96 8.528C173.192 8.528 169.352 11.824 169.352 16.848C169.352 21.872 173.192 25.168 177.96 25.168C180.2 25.168 182.088 24.464 183.4 23.024V23.76C183.4 26.864 181.864 28.464 178.344 28.464C176.136 28.464 173.736 27.696 172.264 26.512L170.28 30.096C172.296 31.664 175.464 32.464 178.728 32.464C184.936 32.464 188.392 29.52 188.392 23.12V8.784H183.656ZM178.952 21.072C176.328 21.072 174.408 19.376 174.408 16.848C174.408 14.32 176.328 12.624 178.952 12.624C181.576 12.624 183.464 14.32 183.464 16.848C183.464 19.376 181.576 21.072 178.952 21.072Z" fill="#6E728E"/>
</svg>
